<?xml version="1.0" encoding="UTF-8"?>
<svg id="Layer_1" xmlns="http://www.w3.org/2000/svg" xmlns:xlink="http://www.w3.org/1999/xlink" version="1.1" viewBox="0 380 698 340">
  <!-- Generator: Adobe Illustrator 29.8.1, SVG Export Plug-In . SVG Version: 2.1.1 Build 2)  -->
  <defs>
    <style>
      .st0 {
        fill: #082340;
      }

      .st1 {
        fill: #6a7e26;
      }
    </style>
  </defs>
  <g>
    <polygon class="st0" points="277.1 458.5 277.1 559.2 358.9 559.2 358.9 458.5 405.7 458.5 405.7 606 230.6 606 230.6 458.5 277.1 458.5"/>
    <polygon class="st1" points="467.6 399.2 467.6 506.4 422.3 506.4 422.3 444.6 360.4 444.6 360.4 399.2 467.6 399.2"/>
    <path class="st1" d="M372.3,648.5c8.9-.5,20.1-.5,29,0s16.9,2.3,20.2,10.7,2.2,22.3,1.7,29.5c-.8,13-8.4,18-20.8,18.6-9.2.5-21.3.5-30.5,0s-15.8-2.7-19-10.7-2.2-21.9-1.7-29c.8-13.4,8.4-18.3,21.1-19ZM406.3,664.3c-1.2-1.3-3.6-1.5-5.3-1.8-9,.5-18.7-.7-27.6,0s-5.1.8-6.2,3.4-1.1,16-.8,19.8,1.9,7,7.1,7.3c9.1-.5,18.9.7,27.9,0s6.5-2.5,6.8-7.6.5-15.5-.6-18.9-.8-1.8-1.2-2.3Z"/>
    <path class="st1" d="M508.9,671.2h44.5c.3,0,1.6,1,1.8,1.3.7,1.4.7,7.3.3,8.9s-1.1,2.5-2.1,2.5h-44.5c0,4.9.4,8.4,5.9,9,12.2.9,25.8-1,37.9,0s2.7.7,3.2,2.1.5,8.4,0,9.9-1.3,1.9-2.7,2.1c-12.7-.5-25.8.7-38.4,0s-20.4-7.9-21-22.9-.2-9,0-13.2c.6-15.6,6-21.9,21.9-22.7,12.2-.6,24.8.5,37,0,1.1,0,2.6.7,3,1.8s.6,6.7.4,8.5-.7,3.7-3.2,4c-12,.6-24.8-.8-36.7,0-6,.4-7.4,2.8-7.3,8.6Z"/>
    <path class="st0" d="M134.8,691.8v-41.1c0-.8,1.7-2.1,2.5-2.3,1.4-.2,8.9-.2,10.2,0s2,1.3,2.1,2.2v49.1c-.4,4.4-2.8,7-7.3,7.3s-11.4.3-14-.8-1.6-1.2-2.4-1.7l-31.5-40.9v40.9c0,.9-1.4,2.3-2.3,2.5s-9.5.2-10.6,0-2-1.5-2.1-2.7v-47.7c.3-3.7,1.4-6.8,5.3-7.9s13.7-.7,16.3.4,1.6,1.1,2.4,1.7l31.4,40.9Z"/>
    <path class="st1" d="M295.3,704.6c-.2,1.1-1.1,2.1-2.2,2.4s-9.1.4-10.6.1-1.9-1-2.3-2v-53.7c0-2.2,1.8-2.8,3.7-3,14.6.7,30.1-.9,44.6,0,14,.9,17.2,8.9,16.9,21.7s-2,14-10.2,17.4-.4-.1-.3.4l11.9,14.8c1.3,1.9.5,4.3-1.9,4.5s-8.8.3-11.3,0-1.1-.2-1.6-.5l-13.2-17h-23.4v15ZM325.2,662.3h-29.9v14.6h29.6c.4,0,2.1-.4,2.6-.5,1.7-.6,2.4-2.4,2.6-4.1s.3-6.9-1.1-8.5-2.7-1.3-3.8-1.4Z"/>
    <path class="st1" d="M224.1,690.1v14.7c0,.7-1.4,2-2.2,2.2-1.2.3-9,.3-10.4,0s-2.2-1.1-2.4-2.1v-53.4c0-2,1.7-3.2,3.6-3.2,14.6.6,29.9-.8,44.4,0s16.6,5.9,17.2,17.1-1.2,23.7-16.4,24.6h-33.7ZM224.1,662.6v13.8l.8.4c9.2-.5,19,.6,28.1,0s4.5-.4,5.4-2.5.7-7.8,0-9.4-.4-.8-.6-1.1-2-1.2-2.4-1.2h-31.3Z"/>
    <path class="st0" d="M3.1,648.5c1.7-.3,8.2-.3,10,0s2.6,1.8,2.8,3.7c.9,11-1.1,23.6,0,34.5s2.7,5.9,7,6.2c7.2.5,18.5.5,25.7,0s6.7-1.8,7.1-6.6c.8-11-.8-23.1,0-34.1s.8-3.5,3-3.7,7.3-.2,9.4,0,2.9,1.2,3,3c-.6,12,.7,24.6,0,36.5-.8,13-7.5,18.6-20.3,19.3-9,.5-21.1.5-30,0-12.5-.7-19.4-6.3-20.3-19.1s.6-24.8,0-36.9c.2-1.4,1.2-2.5,2.6-2.7Z"/>
    <path class="st1" d="M583.7,648.5c12.7-.7,25.9.4,38.6,0,1.7.2,3.1.9,3.2,2.8s.3,7.5,0,9.3-1.4,2.3-2.7,2.3c-12,.5-24.8-.8-36.7,0-3.4.2-6.6.6-7.7,4.3s-.8,12.8-.6,16.9,1,8.3,6.8,8.8c12.1.9,25.4-.7,37.7,0,1.5,0,3,.9,3.2,2.5s.3,7.9,0,9.6-1.9,2.5-3.2,2.3c-12.7-.5-26,.6-38.6,0-13.2-.7-20.1-6-21-19.6-.3-5.7-.3-13.5,0-19.2.8-13.9,7.6-19.2,21.1-19.9Z"/>
    <path class="st1" d="M670.8,662.8v41.6c0,1.1-1.2,2.5-2.3,2.7s-9.1.3-10.6,0-2.4-1.4-2.4-2.7v-41.6h-24.6c-.8,0-1.9-1.5-2-2.3-.2-1.6-.3-8.2,0-9.8s1.4-2,2.4-2.2h63.7c1.3.2,2.4,1.1,2.6,2.4s.2,7.8,0,9.6-1.2,2.3-2,2.3h-24.6Z"/>
    <path class="st1" d="M473.5,648.5c1.7-.3,8.2-.3,9.9,0s2.4,1.3,2.6,2.9c-.4,11.5.6,23.5,0,35-.7,14.2-6.8,20-21,20.8-11.2.6-22.9-.5-34.1,0-1.9,0-3-1.2-3.2-3s-.2-6.3,0-8.1,1.4-3.1,3.5-3.2c10.5-.9,22.5.9,33.1,0s6-2.2,6.4-6.6c.8-11.1-.6-23.3,0-34.5.1-1.6,1.2-2.9,2.8-3.2Z"/>
    <path class="st0" d="M160.9,648.5c1.7-.3,8.5-.3,10.2,0s2.4,1.3,2.6,2.7v53c0,1.4-1.1,2.8-2.5,3s-8.6.3-10.3,0-2.3-1.3-2.5-2.5v-53.2c.2-1.6,1-2.7,2.6-2.9Z"/>
    <path d="M444.3,582.2v21.9c0,.9-1.4,1.7-2.3,1.8-1.7.2-6.2.1-7.7-.4s-2.8-2.1-3-4c-.5-4.3.4-9.4-.1-13.8-.3-1.6-4.9-1.3-4.9.1v17.1h-4.1v-19.3c0-.1.6-1.4.8-1.6,1.9-2.9,9-2.9,11,0s.4,12.2,1,16.1c0,.3.7,1.1.8,1.1h4.1l.4-.4v-18.5c.4-.7,4.1-.3,4.1-.1Z"/>
    <path d="M428.7,524.7c2.6-.3,8.4-.3,10.8.3s3.9,2.2,4.5,4.6.7,12.8-.1,15.5-2.8,4.2-5.6,4.4-9.7.3-11.9-.5-2.6-1.5-3.3-3c-1.1-2.5-1-11.6-.8-14.6s2.4-6.3,6.4-6.8ZM430.4,529.3c-2,.2-3.6.5-4,2.7s-.2,7.4,0,9.5.4,2.5,1.5,3,7.5.6,9.2.4c2.7-.3,3-1.8,3.2-4.2s.2-8.4-.5-10-.5-.7-.8-.9c-1.4-.9-6.7-.8-8.6-.6Z"/>
    <path d="M428.7,553.5c2.3-.3,6.2-.3,8.6,0,3.4.3,5.9,1.6,6.7,5s.7,12.8-.1,15.5-1.4,2.9-2.9,3.6c-2.2,1.1-10.2,1.1-12.8.8s-5.6-3-5.9-6.6-.3-11.1.4-13.6,3.1-4.4,6.1-4.7ZM427.1,559c-.2.2-.6,1.1-.6,1.4-.4,1.9-.4,8.1-.2,10.1s.5,2.4,1.7,2.9,7.1.5,8.8.4,2.8-.6,3.2-2.1.5-9.6,0-11.6-2.4-2-4.1-2.2-7.5-.3-8.7,1Z"/>
    <path d="M426.3,522.3h-4.1v-6.1c0-.5,1.1-1.6,1.6-1.6h20.2l.4.4v3.8l-.4.4h-17.3c-.7.2-.2,3.1-.4,3.1Z"/>
  </g>
</svg>